# Blender v2.80 (sub 75) OBJ File: 'StorageRack2.blend'
# www.blender.org
mtllib StorageRackCovered.mtl
o StorageRackCovered
v -0.254513 0.341949 0.091152
v -0.253632 0.334518 0.658749
v 0.225784 0.334518 0.658749
v 0.226568 0.367718 0.075359
v -0.252472 0.335832 1.502613
v 0.224747 0.335832 1.502613
v -0.224106 0.303524 1.755769
v 0.251755 0.324871 1.744624
v -0.629591 0.318011 0.658665
v -0.634061 0.372848 0.091026
v -0.626623 0.320481 1.502613
v -0.624792 0.321826 1.744622
v 0.621992 0.337384 1.744620
v 0.623823 0.343476 1.502579
v 0.626791 0.332268 0.658707
v 0.642316 0.370233 0.101208
v 0.251755 -0.331665 1.744624
v -0.224106 -0.331665 1.755771
v -0.629591 -0.329737 0.658749
v -0.634061 -0.373630 0.096363
v 0.254513 -0.363910 0.123718
v 0.253632 -0.329737 0.658749
v -0.225784 -0.356417 0.658749
v -0.226568 -0.389676 0.097805
v 0.631834 -0.329737 0.671898
v 0.642316 -0.363910 0.123718
v 0.623823 -0.337692 1.502613
v 0.252472 -0.354660 1.502613
v -0.224747 -0.354660 1.502613
v -0.635351 -0.337692 1.500469
v 0.621992 -0.331665 1.744624
v -0.624792 -0.331665 1.744624
v 0.629121 -0.298744 0.157852
v 0.591241 -0.298744 0.157852
v 0.591241 -0.356445 0.157850
v 0.629121 -0.356445 0.157850
v 0.629121 -0.285755 0.048357
v 0.629121 -0.304222 0.048357
v 0.591241 -0.304222 0.048357
v 0.591241 -0.285755 0.048357
v 0.591241 -0.228569 0.156730
v 0.629121 -0.228569 0.156730
v 0.629121 -0.350418 0.119518
v 0.629121 -0.298744 0.119518
v 0.591241 -0.298744 0.119518
v 0.591241 -0.350418 0.119518
v 0.629121 -0.266722 0.157850
v 0.591241 -0.266722 0.157850
v 0.629121 -0.274777 0.126668
v 0.591241 -0.274777 0.126668
v 0.593230 -0.339657 0.017555
v 0.593230 -0.357212 0.059937
v 0.593228 -0.339657 0.102318
v 0.593230 -0.297276 0.119873
v 0.593228 -0.254894 0.102318
v 0.593230 -0.237339 0.059937
v 0.593227 -0.254894 0.017555
v 0.593228 -0.297276 0.000000
v 0.626197 -0.339657 0.017555
v 0.626193 -0.357212 0.059937
v 0.626194 -0.339657 0.102318
v 0.626196 -0.297276 0.119873
v 0.626194 -0.254894 0.102318
v 0.626193 -0.237339 0.059937
v 0.626197 -0.254894 0.017555
v 0.626195 -0.297276 0.000000
v 0.593230 -0.297276 0.059937
v 0.626193 -0.297276 0.059937
v -0.629121 -0.298744 0.157852
v -0.591241 -0.298744 0.157852
v -0.591241 -0.356445 0.157850
v -0.629121 -0.356445 0.157850
v -0.629121 -0.285755 0.048357
v -0.629121 -0.304222 0.048357
v -0.591241 -0.304222 0.048357
v -0.591241 -0.285755 0.048357
v -0.591241 -0.228569 0.156730
v -0.629121 -0.228569 0.156730
v -0.629121 -0.350418 0.119518
v -0.629121 -0.298744 0.119518
v -0.591241 -0.298744 0.119518
v -0.591241 -0.350418 0.119518
v -0.629121 -0.266722 0.157850
v -0.591241 -0.266722 0.157850
v -0.629121 -0.274777 0.126668
v -0.591241 -0.274777 0.126668
v -0.593230 -0.339657 0.017555
v -0.593230 -0.357212 0.059937
v -0.593228 -0.339657 0.102318
v -0.593230 -0.297276 0.119873
v -0.593228 -0.254894 0.102318
v -0.593230 -0.237339 0.059937
v -0.593227 -0.254894 0.017555
v -0.593228 -0.297276 0.000000
v -0.626197 -0.339657 0.017555
v -0.626193 -0.357212 0.059937
v -0.626194 -0.339657 0.102318
v -0.626196 -0.297276 0.119873
v -0.626194 -0.254894 0.102318
v -0.626193 -0.237339 0.059937
v -0.626197 -0.254894 0.017555
v -0.626195 -0.297276 0.000000
v -0.593230 -0.297276 0.059937
v -0.626193 -0.297276 0.059937
v 0.629121 0.298744 0.157852
v 0.591241 0.298744 0.157852
v 0.591241 0.356445 0.157850
v 0.629121 0.356445 0.157850
v 0.629121 0.285755 0.048357
v 0.629121 0.304222 0.048357
v 0.591241 0.304222 0.048357
v 0.591241 0.285755 0.048357
v 0.591241 0.228569 0.156730
v 0.629121 0.228569 0.156730
v 0.629121 0.350418 0.119518
v 0.629121 0.298744 0.119518
v 0.591241 0.298744 0.119518
v 0.591241 0.350418 0.119518
v 0.629121 0.266722 0.157850
v 0.591241 0.266722 0.157850
v 0.629121 0.274777 0.126668
v 0.591241 0.274777 0.126668
v 0.593230 0.339657 0.017555
v 0.593230 0.357212 0.059937
v 0.593228 0.339657 0.102318
v 0.593230 0.297276 0.119873
v 0.593228 0.254894 0.102318
v 0.593230 0.237339 0.059937
v 0.593227 0.254894 0.017555
v 0.593228 0.297276 0.000000
v 0.626197 0.339657 0.017555
v 0.626193 0.357212 0.059937
v 0.626194 0.339657 0.102318
v 0.626196 0.297276 0.119873
v 0.626194 0.254894 0.102318
v 0.626193 0.237339 0.059937
v 0.626197 0.254894 0.017555
v 0.626195 0.297276 0.000000
v 0.593230 0.297276 0.059937
v 0.626193 0.297276 0.059937
v -0.629121 0.298744 0.157852
v -0.591241 0.298744 0.157852
v -0.591241 0.356445 0.157850
v -0.629121 0.356445 0.157850
v -0.629121 0.285755 0.048357
v -0.629121 0.304222 0.048357
v -0.591241 0.304222 0.048357
v -0.591241 0.285755 0.048357
v -0.591241 0.228569 0.156730
v -0.629121 0.228569 0.156730
v -0.629121 0.350418 0.119518
v -0.629121 0.298744 0.119518
v -0.591241 0.298744 0.119518
v -0.591241 0.350418 0.119518
v -0.629121 0.266722 0.157850
v -0.591241 0.266722 0.157850
v -0.629121 0.274777 0.126668
v -0.591241 0.274777 0.126668
v -0.593230 0.339657 0.017555
v -0.593230 0.357212 0.059937
v -0.593228 0.339657 0.102318
v -0.593230 0.297276 0.119873
v -0.593228 0.254894 0.102318
v -0.593230 0.237339 0.059937
v -0.593227 0.254894 0.017555
v -0.593228 0.297276 0.000000
v -0.626197 0.339657 0.017555
v -0.626193 0.357212 0.059937
v -0.626194 0.339657 0.102318
v -0.626196 0.297276 0.119873
v -0.626194 0.254894 0.102318
v -0.626193 0.237339 0.059937
v -0.626197 0.254894 0.017555
v -0.626195 0.297276 0.000000
v -0.593230 0.297276 0.059937
v -0.626193 0.297276 0.059937
vt 0.595586 0.040178
vt 0.593125 0.244159
vt 0.439658 0.242735
vt 0.441208 0.038582
vt 0.590447 0.511080
vt 0.439388 0.509608
vt 0.588770 0.676148
vt 0.437871 0.674696
vt 0.713659 0.245428
vt 0.715575 0.042438
vt 0.714684 0.512136
vt 0.712947 0.677359
vt 0.304901 0.673485
vt 0.306393 0.508135
vt 0.306442 0.241443
vt 0.308755 0.038389
vt 0.588770 0.676148
vt 0.586371 0.888653
vt 0.436004 0.880333
vt 0.437871 0.674696
vt 0.306442 0.241443
vt 0.083477 0.240656
vt 0.083445 0.036588
vt 0.308755 0.038389
vt 0.595586 0.040178
vt 0.593125 0.244159
vt 0.439658 0.242735
vt 0.441208 0.038582
vt 0.951666 0.249009
vt 0.713659 0.245428
vt 0.715575 0.042438
vt 0.946395 0.044830
vt 0.946212 0.516197
vt 0.714684 0.512136
vt 0.590447 0.511080
vt 0.439388 0.509608
vt 0.306393 0.508135
vt 0.082225 0.575123
vt 0.939138 0.681457
vt 0.712947 0.677359
vt 0.304901 0.673485
vt 0.087499 0.672915
vt 0.710065 0.894202
vt 0.303525 0.881180
vt 0.028073 0.748924
vt 0.028582 0.741216
vt 0.036346 0.744300
vt 0.035395 0.747248
vt 0.031904 0.732715
vt 0.044078 0.739777
vt 0.044078 0.753476
vt 0.025081 0.732471
vt 0.021553 0.740070
vt 0.011829 0.738794
vt 0.030003 0.758177
vt 0.023178 0.757158
vt 0.020907 0.749061
vt 0.037969 0.777062
vt 0.032939 0.778742
vt 0.038569 0.714175
vt 0.042920 0.716699
vt 0.011201 0.748893
vt 0.151732 0.802955
vt 0.110844 0.901620
vt 0.069990 0.802941
vt 0.012180 0.860731
vt 0.012165 0.942474
vt 0.209523 0.860766
vt 0.209509 0.942508
vt 0.151698 1.000298
vt 0.069956 1.000284
vt 0.267463 0.975093
vt 0.248404 0.975093
vt 0.248403 0.948575
vt 0.267462 0.948574
vt 0.248402 0.922057
vt 0.267461 0.922056
vt 0.248401 0.895538
vt 0.267460 0.895538
vt 0.248400 0.869020
vt 0.267460 0.869019
vt 0.248399 0.842502
vt 0.267458 0.842501
vt 0.248398 0.815984
vt 0.267457 0.815983
vt 0.248398 0.789465
vt 0.267457 0.789465
vt 0.248396 0.762947
vt 0.267456 0.762946
vt 0.151469 0.999749
vt 0.110844 0.901620
vt 0.208958 0.942281
vt 0.208973 0.860995
vt 0.151506 0.803506
vt 0.070219 0.803491
vt 0.012730 0.860958
vt 0.012715 0.942244
vt 0.070183 0.999734
vt 0.071448 0.750408
vt 0.078771 0.748732
vt 0.079722 0.745784
vt 0.071958 0.742700
vt 0.075280 0.734199
vt 0.087453 0.741261
vt 0.087453 0.754960
vt 0.068457 0.733955
vt 0.055204 0.740278
vt 0.064928 0.741554
vt 0.064282 0.750545
vt 0.066553 0.758642
vt 0.073378 0.759661
vt 0.076315 0.780226
vt 0.081345 0.778546
vt 0.086295 0.718183
vt 0.081945 0.715659
vt 0.054576 0.750377
vt 0.151732 0.802955
vt 0.069990 0.802941
vt 0.110844 0.901620
vt 0.012180 0.860731
vt 0.012165 0.942474
vt 0.209523 0.860766
vt 0.209509 0.942508
vt 0.151698 1.000298
vt 0.069956 1.000284
vt 0.267463 0.975093
vt 0.267462 0.948574
vt 0.248403 0.948575
vt 0.248404 0.975093
vt 0.267461 0.922056
vt 0.248402 0.922057
vt 0.267460 0.895538
vt 0.248401 0.895538
vt 0.267460 0.869019
vt 0.248400 0.869020
vt 0.267458 0.842501
vt 0.248399 0.842502
vt 0.267457 0.815983
vt 0.248398 0.815984
vt 0.267457 0.789465
vt 0.248398 0.789465
vt 0.267456 0.762946
vt 0.248396 0.762947
vt 0.151469 0.999749
vt 0.208958 0.942281
vt 0.110844 0.901620
vt 0.208973 0.860995
vt 0.151506 0.803506
vt 0.070219 0.803491
vt 0.012730 0.860958
vt 0.012715 0.942244
vt 0.070183 0.999734
vt 0.190313 0.748359
vt 0.197635 0.746683
vt 0.198586 0.743735
vt 0.190822 0.740651
vt 0.194144 0.732150
vt 0.206318 0.739212
vt 0.206318 0.752911
vt 0.187321 0.731906
vt 0.174069 0.738229
vt 0.183793 0.739506
vt 0.183147 0.748496
vt 0.185418 0.756593
vt 0.192243 0.757613
vt 0.195179 0.778177
vt 0.200209 0.776497
vt 0.205160 0.716134
vt 0.200809 0.713610
vt 0.173441 0.748328
vt 0.151732 0.802955
vt 0.069990 0.802941
vt 0.110844 0.901620
vt 0.012180 0.860731
vt 0.012165 0.942474
vt 0.209523 0.860766
vt 0.209509 0.942508
vt 0.151698 1.000298
vt 0.069956 1.000284
vt 0.267463 0.975093
vt 0.267462 0.948574
vt 0.248403 0.948575
vt 0.248404 0.975093
vt 0.267461 0.922056
vt 0.248402 0.922057
vt 0.267460 0.895538
vt 0.248401 0.895538
vt 0.267460 0.869019
vt 0.248400 0.869020
vt 0.267458 0.842501
vt 0.248399 0.842502
vt 0.267457 0.815983
vt 0.248398 0.815984
vt 0.267457 0.789465
vt 0.248398 0.789465
vt 0.267456 0.762946
vt 0.248396 0.762947
vt 0.151469 0.999749
vt 0.208958 0.942281
vt 0.110844 0.901620
vt 0.208973 0.860995
vt 0.151506 0.803506
vt 0.070219 0.803491
vt 0.012730 0.860958
vt 0.012715 0.942244
vt 0.070183 0.999734
vt 0.129449 0.748969
vt 0.129958 0.741261
vt 0.137722 0.744345
vt 0.136771 0.747293
vt 0.133280 0.732760
vt 0.145454 0.739822
vt 0.145454 0.753521
vt 0.126457 0.732516
vt 0.122929 0.740115
vt 0.113205 0.738839
vt 0.131379 0.758222
vt 0.124554 0.757203
vt 0.122282 0.749105
vt 0.139345 0.777107
vt 0.134315 0.778787
vt 0.139945 0.714220
vt 0.144295 0.716744
vt 0.071958 0.742700
vt 0.071448 0.750408
vt 0.064282 0.750545
vt 0.064928 0.741554
vt 0.112576 0.748938
vt 0.151732 0.802955
vt 0.110844 0.901620
vt 0.069990 0.802941
vt 0.012180 0.860731
vt 0.012165 0.942474
vt 0.209523 0.860766
vt 0.209509 0.942508
vt 0.151698 1.000298
vt 0.069956 1.000284
vt 0.267463 0.975093
vt 0.248404 0.975093
vt 0.248403 0.948575
vt 0.267462 0.948574
vt 0.248402 0.922057
vt 0.267461 0.922056
vt 0.248401 0.895538
vt 0.267460 0.895538
vt 0.248400 0.869020
vt 0.267460 0.869019
vt 0.248399 0.842502
vt 0.267458 0.842501
vt 0.248398 0.815984
vt 0.267457 0.815983
vt 0.248398 0.789465
vt 0.267457 0.789465
vt 0.248396 0.762947
vt 0.267456 0.762946
vt 0.151469 0.999749
vt 0.110844 0.901620
vt 0.208958 0.942281
vt 0.208973 0.860995
vt 0.151506 0.803506
vt 0.070219 0.803491
vt 0.012730 0.860958
vt 0.012715 0.942244
vt 0.070183 0.999734
vn -0.0011 0.9989 0.0461
vn -0.0072 0.9998 0.0209
vn -0.0126 0.9997 0.0214
vn -0.0176 0.9986 0.0495
vn -0.0145 0.9994 0.0314
vn -0.0109 0.9996 0.0267
vn -0.0055 0.5636 0.8260
vn 0.0057 0.5927 0.8054
vn -0.8767 0.4809 0.0142
vn -0.8528 0.5175 0.0698
vn -0.8691 0.4943 0.0184
vn -0.7067 0.4251 0.5655
vn 0.7307 0.4116 0.5448
vn 0.8649 0.5018 0.0090
vn 0.8624 0.5057 0.0225
vn 0.8327 0.5464 0.0898
vn 0.0179 -0.5787 0.8154
vn -0.0061 -0.5803 0.8144
vn -0.8712 -0.4905 0.0225
vn -0.8564 -0.5145 0.0434
vn 0.0293 -0.9976 0.0621
vn 0.0268 -0.9994 0.0226
vn -0.0051 -0.9996 0.0276
vn 0.0018 -0.9979 0.0650
vn 0.8885 -0.4587 0.0120
vn 0.8781 -0.4756 0.0530
vn 0.8823 -0.4701 0.0211
vn 0.0201 -0.9994 0.0267
vn -0.0101 -0.9995 0.0307
vn -0.8654 -0.5006 0.0232
vn 0.7359 -0.3873 0.5553
vn -0.7041 -0.4234 0.5701
vn -0.0093 0.0224 0.9997
vn 0.0135 -0.0202 0.9997
vn 0.4476 0.2104 0.8691
vn -0.1828 0.4595 0.8692
vn -0.9678 -0.0953 -0.2328
vn -0.8283 0.2136 0.5180
vn -0.8691 0.4563 -0.1907
vn -0.9997 0.0202 -0.0135
vn 0.5326 -0.8453 0.0432
vn -0.4726 -0.8803 0.0414
vn -0.4595 -0.8302 -0.3155
vn 0.2105 -0.7891 -0.5771
vn -0.9946 -0.0241 0.1008
vn -0.9976 -0.0010 -0.0699
vn -0.9267 -0.3699 -0.0659
vn 0.9997 -0.0224 -0.0093
vn 0.9646 0.1625 0.2078
vn 0.9862 -0.1562 0.0550
vn 0.9972 0.0434 -0.0617
vn 0.8632 0.2273 0.4508
vn 0.8107 0.2693 0.5199
vn 0.8165 -0.5612 0.1357
vn -0.8199 -0.4332 0.3743
vn -0.8158 0.5227 0.2473
vn -0.0611 -0.0303 0.9977
vn 0.0704 0.0147 0.9974
vn 0.9269 -0.3573 -0.1151
vn -0.2382 -0.2629 0.9350
vn 0.3236 -0.1636 0.9319
vn -0.9932 0.0337 -0.1113
vn -1.0000 -0.0000 0.0000
vn -0.9932 0.1026 -0.0548
vn -0.9932 0.1113 0.0337
vn -0.9932 0.0882 0.0758
vn -0.9932 -0.0548 -0.1026
vn -0.9932 -0.1113 -0.0337
vn -0.9932 -0.1026 0.0549
vn -0.9932 -0.0338 0.1114
vn 0.1349 -0.7102 -0.6910
vn -0.0857 -0.7748 -0.6264
vn 0.0000 -0.9908 0.1355
vn 0.1252 -0.9908 -0.0518
vn 0.0000 -0.6047 0.7964
vn 0.1252 -0.7373 0.6639
vn -0.0000 0.1355 0.9908
vn 0.1252 -0.0519 0.9908
vn -0.0000 0.7964 0.6047
vn 0.1252 0.6639 0.7373
vn 0.0000 0.9908 -0.1355
vn 0.1252 0.9908 0.0519
vn -0.0000 0.6047 -0.7965
vn 0.1252 0.7372 -0.6639
vn 0.0000 -0.1357 -0.9908
vn 0.1253 0.0520 -0.9908
vn 0.9932 0.0445 -0.1073
vn 1.0000 0.0000 0.0000
vn 0.9932 -0.0445 -0.1075
vn 0.9932 -0.1074 -0.0445
vn 0.9932 -0.1074 0.0445
vn 0.9932 -0.0445 0.1074
vn 0.9932 0.0445 0.1075
vn 0.9932 0.1075 0.0446
vn 0.9932 0.1155 0.0141
vn 0.8692 0.2358 -0.4347
vn 0.0093 0.0224 0.9997
vn 0.1828 0.4595 0.8692
vn -0.4476 0.2104 0.8691
vn -0.0135 -0.0202 0.9997
vn 0.9678 -0.0953 -0.2328
vn 0.9997 0.0202 -0.0135
vn 0.8691 0.4563 -0.1907
vn 0.8283 0.2136 0.5180
vn -0.5326 -0.8453 0.0432
vn -0.2105 -0.7891 -0.5771
vn 0.4595 -0.8302 -0.3155
vn 0.4726 -0.8803 0.0414
vn 0.9946 -0.0241 0.1008
vn 0.9267 -0.3699 -0.0659
vn 0.9976 -0.0010 -0.0699
vn -0.9997 -0.0224 -0.0093
vn -0.9972 0.0434 -0.0617
vn -0.9862 -0.1562 0.0550
vn -0.9646 0.1625 0.2078
vn -0.8165 -0.5612 0.1357
vn -0.8107 0.2693 0.5199
vn -0.8632 0.2273 0.4508
vn 0.8158 0.5227 0.2473
vn 0.8199 -0.4332 0.3743
vn -0.0704 0.0147 0.9974
vn 0.0611 -0.0303 0.9977
vn -0.9269 -0.3573 -0.1151
vn -0.3236 -0.1636 0.9319
vn 0.2382 -0.2629 0.9350
vn 0.9932 0.0337 -0.1113
vn 0.9932 0.1026 -0.0548
vn 0.9932 0.1113 0.0337
vn 0.9932 0.0882 0.0758
vn 0.9932 -0.0548 -0.1026
vn 0.9932 -0.1113 -0.0337
vn 0.9932 -0.1026 0.0549
vn 0.9932 -0.0338 0.1114
vn -0.1349 -0.7102 -0.6910
vn -0.1252 -0.9908 -0.0518
vn 0.0857 -0.7748 -0.6264
vn -0.1252 -0.7373 0.6639
vn -0.1252 -0.0519 0.9908
vn -0.1252 0.6639 0.7373
vn -0.1252 0.9908 0.0519
vn -0.1252 0.7372 -0.6639
vn -0.1253 0.0520 -0.9908
vn -0.9932 0.0445 -0.1073
vn -0.9932 -0.0445 -0.1075
vn -0.9932 -0.1074 -0.0445
vn -0.9932 -0.1074 0.0445
vn -0.9932 -0.0445 0.1074
vn -0.9932 0.0445 0.1075
vn -0.9932 0.1075 0.0446
vn -0.9932 0.1155 0.0141
vn -0.8692 0.2358 -0.4347
vn -0.0093 -0.0224 0.9997
vn -0.1828 -0.4595 0.8692
vn 0.4476 -0.2104 0.8691
vn 0.0135 0.0202 0.9997
vn -0.9678 0.0953 -0.2328
vn -0.9997 -0.0202 -0.0135
vn -0.8691 -0.4563 -0.1907
vn -0.8283 -0.2136 0.5180
vn 0.5326 0.8453 0.0432
vn 0.2105 0.7891 -0.5771
vn -0.4595 0.8302 -0.3155
vn -0.4726 0.8803 0.0414
vn -0.9946 0.0241 0.1008
vn -0.9267 0.3699 -0.0659
vn -0.9976 0.0010 -0.0699
vn 0.9997 0.0224 -0.0093
vn 0.9972 -0.0434 -0.0617
vn 0.9862 0.1562 0.0550
vn 0.9646 -0.1625 0.2078
vn 0.8165 0.5612 0.1357
vn 0.8107 -0.2693 0.5199
vn 0.8632 -0.2273 0.4508
vn -0.8158 -0.5227 0.2473
vn -0.8199 0.4332 0.3743
vn 0.0704 -0.0147 0.9974
vn -0.0611 0.0303 0.9977
vn 0.9269 0.3573 -0.1151
vn 0.3236 0.1636 0.9319
vn -0.2382 0.2629 0.9350
vn -0.9932 -0.0337 -0.1113
vn -0.9932 -0.1026 -0.0548
vn -0.9932 -0.1113 0.0337
vn -0.9932 -0.0882 0.0758
vn -0.9932 0.0548 -0.1026
vn -0.9932 0.1113 -0.0337
vn -0.9932 0.1026 0.0549
vn -0.9932 0.0338 0.1114
vn 0.1349 0.7102 -0.6910
vn 0.1252 0.9908 -0.0518
vn -0.0000 0.9908 0.1355
vn -0.0857 0.7748 -0.6264
vn 0.1252 0.7373 0.6639
vn 0.0000 0.6047 0.7964
vn 0.1252 0.0519 0.9908
vn 0.0000 -0.1355 0.9908
vn 0.1252 -0.6639 0.7373
vn -0.0000 -0.7964 0.6047
vn 0.1252 -0.9908 0.0519
vn 0.0000 -0.9908 -0.1355
vn 0.1252 -0.7372 -0.6639
vn -0.0000 -0.6047 -0.7965
vn 0.1253 -0.0520 -0.9908
vn -0.0000 0.1357 -0.9908
vn 0.9932 -0.0445 -0.1073
vn 0.9932 0.0445 -0.1075
vn 0.9932 0.1074 -0.0445
vn 0.9932 0.1074 0.0445
vn 0.9932 0.0445 0.1074
vn 0.9932 -0.0445 0.1075
vn 0.9932 -0.1075 0.0446
vn 0.9932 -0.1155 0.0141
vn 0.8692 -0.2358 -0.4347
vn 0.0093 -0.0224 0.9997
vn -0.0135 0.0202 0.9997
vn -0.4476 -0.2104 0.8691
vn 0.1828 -0.4595 0.8692
vn 0.9678 0.0953 -0.2328
vn 0.8283 -0.2136 0.5180
vn 0.8691 -0.4563 -0.1907
vn 0.9997 -0.0202 -0.0135
vn -0.5326 0.8453 0.0432
vn 0.4726 0.8803 0.0414
vn 0.4595 0.8302 -0.3155
vn -0.2105 0.7891 -0.5771
vn 0.9946 0.0241 0.1008
vn 0.9976 0.0010 -0.0699
vn 0.9267 0.3699 -0.0659
vn -0.9997 0.0224 -0.0093
vn -0.9646 -0.1625 0.2078
vn -0.9862 0.1562 0.0550
vn -0.9972 -0.0434 -0.0617
vn -0.8632 -0.2273 0.4508
vn -0.8107 -0.2693 0.5199
vn -0.8165 0.5612 0.1357
vn 0.8199 0.4332 0.3743
vn 0.8158 -0.5227 0.2473
vn 0.0611 0.0303 0.9977
vn -0.0704 -0.0147 0.9974
vn -0.9269 0.3573 -0.1151
vn 0.2382 0.2629 0.9350
vn -0.3236 0.1636 0.9319
vn 0.9932 -0.0337 -0.1113
vn 0.9932 -0.1026 -0.0548
vn 0.9932 -0.1113 0.0337
vn 0.9932 -0.0882 0.0758
vn 0.9932 0.0548 -0.1026
vn 0.9932 0.1113 -0.0337
vn 0.9932 0.1026 0.0549
vn 0.9932 0.0338 0.1114
vn -0.1349 0.7102 -0.6910
vn 0.0857 0.7748 -0.6264
vn -0.1252 0.9908 -0.0518
vn -0.1252 0.7373 0.6639
vn -0.1252 0.0519 0.9908
vn -0.1252 -0.6639 0.7373
vn -0.1252 -0.9908 0.0519
vn -0.1252 -0.7372 -0.6639
vn -0.1253 -0.0520 -0.9908
vn -0.9932 -0.0445 -0.1073
vn -0.9932 0.0445 -0.1075
vn -0.9932 0.1074 -0.0445
vn -0.9932 0.1074 0.0445
vn -0.9932 0.0445 0.1074
vn -0.9932 -0.0445 0.1075
vn -0.9932 -0.1075 0.0446
vn -0.9932 -0.1155 0.0141
vn -0.8692 -0.2358 -0.4347
usemtl StorageRackCovered
s 1
f 1/1/1 2/2/2 3/3/3 4/4/4
f 2/2/2 5/5/5 6/6/6 3/3/3
f 5/5/5 7/7/7 8/8/8 6/6/6
f 9/9/9 2/2/2 1/1/1 10/10/10
f 11/11/11 5/5/5 2/2/2 9/9/9
f 12/12/12 7/7/7 5/5/5 11/11/11
f 6/6/6 8/8/8 13/13/13 14/14/14
f 3/3/3 6/6/6 14/14/14 15/15/15
f 4/4/4 3/3/3 15/15/15 16/16/16
f 17/17/17 8/18/8 7/19/7 18/20/18
f 19/21/19 9/22/9 10/23/10 20/24/20
f 21/25/21 22/26/22 23/27/23 24/28/24
f 15/29/15 25/30/25 26/31/26 16/32/16
f 14/33/14 27/34/27 25/30/25 15/29/15
f 22/26/22 28/35/28 29/36/29 23/27/23
f 30/37/30 11/38/11 9/22/9 19/21/19
f 13/39/13 31/40/31 27/34/27 14/33/14
f 28/35/28 17/17/17 18/20/18 29/36/29
f 32/41/32 12/42/12 11/38/11 30/37/30
f 25/30/25 22/26/22 21/25/21 26/31/26
f 27/34/27 28/35/28 22/26/22 25/30/25
f 31/40/31 17/17/17 28/35/28 27/34/27
f 13/43/13 8/18/8 17/17/17 31/40/31
f 18/20/18 7/19/7 12/44/12 32/41/32
f 29/36/29 18/20/18 32/41/32 30/37/30
f 23/27/23 29/36/29 30/37/30 19/21/19
f 24/28/24 23/27/23 19/21/19 20/24/20
f 33/45/33 34/46/34 35/47/35 36/48/36
f 45/49/37 46/50/38 35/47/39 34/46/40
f 46/50/41 43/51/42 36/48/43 35/47/44
f 50/52/45 48/53/46 41/54/47
f 33/45/48 44/55/49 49/56/50 47/57/51
f 44/55/49 43/51/52 38/58/53 37/59/54
f 46/50/38 45/49/37 40/60/55 39/61/56
f 34/46/34 33/45/33 47/57/57 48/53/58
f 34/46/40 48/53/46 50/52/45 45/49/37
f 47/57/51 49/56/50 42/62/59
f 48/53/58 47/57/57 42/62/60 41/54/61
f 54/63/62 67/64/63 53/65/64
f 52/66/65 67/64/63 51/67/66
f 55/68/67 67/64/63 54/63/62
f 56/69/68 67/64/63 55/68/67
f 57/70/69 67/64/63 56/69/68
f 58/71/70 67/64/63 57/70/69
f 51/67/66 67/64/63 58/71/70
f 51/72/71 59/73/72 60/74/73 52/75/74
f 52/75/74 60/74/73 61/76/75 53/77/76
f 53/77/76 61/76/75 62/78/77 54/79/78
f 54/79/78 62/78/77 63/80/79 55/81/80
f 55/81/80 63/80/79 64/82/81 56/83/82
f 56/83/82 64/82/81 65/84/83 57/85/84
f 57/85/84 65/84/83 66/86/85 58/87/86
f 58/87/86 66/86/85 59/88/72 51/89/71
f 60/90/87 68/91/88 61/92/89
f 61/92/89 68/91/88 62/93/90
f 62/93/90 68/91/88 63/94/91
f 63/94/91 68/91/88 64/95/92
f 64/95/92 68/91/88 65/96/93
f 65/96/93 68/91/88 66/97/94
f 66/97/94 68/91/88 59/98/95
f 53/65/64 67/64/63 52/66/65
f 43/51/52 44/55/49 33/45/48 36/48/96
f 59/98/95 68/91/88 60/90/87
f 69/99/97 72/100/98 71/101/99 70/102/100
f 81/103/101 70/102/102 71/101/103 82/104/104
f 82/104/105 71/101/106 72/100/107 79/105/108
f 86/106/109 77/107/110 84/108/111
f 69/99/112 83/109/113 85/110/114 80/111/115
f 80/111/115 73/112/116 74/113/117 79/105/118
f 82/104/104 75/114/119 76/115/120 81/103/101
f 70/102/100 84/108/121 83/109/122 69/99/97
f 70/102/102 81/103/101 86/106/109 84/108/111
f 83/109/113 78/116/123 85/110/114
f 84/108/121 77/107/124 78/116/125 83/109/122
f 90/117/126 89/118/127 103/119/88
f 88/120/128 87/121/129 103/119/88
f 91/122/130 90/117/126 103/119/88
f 92/123/131 91/122/130 103/119/88
f 93/124/132 92/123/131 103/119/88
f 94/125/133 93/124/132 103/119/88
f 87/121/129 94/125/133 103/119/88
f 87/126/134 88/127/135 96/128/73 95/129/136
f 88/127/135 89/130/137 97/131/75 96/128/73
f 89/130/137 90/132/138 98/133/77 97/131/75
f 90/132/138 91/134/139 99/135/79 98/133/77
f 91/134/139 92/136/140 100/137/81 99/135/79
f 92/136/140 93/138/141 101/139/83 100/137/81
f 93/138/141 94/140/142 102/141/85 101/139/83
f 94/140/142 87/142/134 95/143/136 102/141/85
f 96/144/143 97/145/144 104/146/63
f 97/145/144 98/147/145 104/146/63
f 98/147/145 99/148/146 104/146/63
f 99/148/146 100/149/147 104/146/63
f 100/149/147 101/150/148 104/146/63
f 101/150/148 102/151/149 104/146/63
f 102/151/149 95/152/150 104/146/63
f 89/118/127 88/120/128 103/119/88
f 79/105/118 72/100/151 69/99/112 80/111/115
f 95/152/150 96/144/143 104/146/63
f 105/153/152 108/154/153 107/155/154 106/156/155
f 117/157/156 106/156/157 107/155/158 118/158/159
f 118/158/160 107/155/161 108/154/162 115/159/163
f 122/160/164 113/161/165 120/162/166
f 105/153/167 119/163/168 121/164/169 116/165/170
f 116/165/170 109/166/171 110/167/172 115/159/173
f 118/158/159 111/168/174 112/169/175 117/157/156
f 106/156/155 120/162/176 119/163/177 105/153/152
f 106/156/157 117/157/156 122/160/164 120/162/166
f 119/163/168 114/170/178 121/164/169
f 120/162/176 113/161/179 114/170/180 119/163/177
f 126/171/181 125/172/182 139/173/63
f 124/174/183 123/175/184 139/173/63
f 127/176/185 126/171/181 139/173/63
f 128/177/186 127/176/185 139/173/63
f 129/178/187 128/177/186 139/173/63
f 130/179/188 129/178/187 139/173/63
f 123/175/184 130/179/188 139/173/63
f 123/180/189 124/181/190 132/182/191 131/183/192
f 124/181/190 125/184/193 133/185/194 132/182/191
f 125/184/193 126/186/195 134/187/196 133/185/194
f 126/186/195 127/188/197 135/189/198 134/187/196
f 127/188/197 128/190/199 136/191/200 135/189/198
f 128/190/199 129/192/201 137/193/202 136/191/200
f 129/192/201 130/194/203 138/195/204 137/193/202
f 130/194/203 123/196/189 131/197/192 138/195/204
f 132/198/205 133/199/206 140/200/88
f 133/199/206 134/201/207 140/200/88
f 134/201/207 135/202/208 140/200/88
f 135/202/208 136/203/209 140/200/88
f 136/203/209 137/204/210 140/200/88
f 137/204/210 138/205/211 140/200/88
f 138/205/211 131/206/212 140/200/88
f 125/172/182 124/174/183 139/173/63
f 115/159/173 108/154/213 105/153/167 116/165/170
f 131/206/212 132/198/205 140/200/88
f 141/207/214 142/208/215 143/209/216 144/210/217
f 153/211/218 154/212/219 143/209/220 142/208/221
f 154/212/222 151/213/223 144/210/224 143/209/225
f 158/214/226 156/215/227 149/216/228
f 141/207/229 152/217/230 157/218/231 155/219/232
f 152/217/230 151/213/233 146/220/234 145/221/235
f 154/212/219 153/211/218 148/222/236 147/223/237
f 142/224/215 141/225/214 155/226/238 156/227/239
f 142/208/221 156/215/227 158/214/226 153/211/218
f 155/219/232 157/218/231 150/228/240
f 156/215/239 155/219/238 150/228/241 149/216/242
f 162/229/243 175/230/88 161/231/244
f 160/232/245 175/230/88 159/233/246
f 163/234/247 175/230/88 162/229/243
f 164/235/248 175/230/88 163/234/247
f 165/236/249 175/230/88 164/235/248
f 166/237/250 175/230/88 165/236/249
f 159/233/246 175/230/88 166/237/250
f 159/238/251 167/239/252 168/240/191 160/241/253
f 160/241/253 168/240/191 169/242/194 161/243/254
f 161/243/254 169/242/194 170/244/196 162/245/255
f 162/245/255 170/244/196 171/246/198 163/247/256
f 163/247/256 171/246/198 172/248/200 164/249/257
f 164/249/257 172/248/200 173/250/202 165/251/258
f 165/251/258 173/250/202 174/252/204 166/253/259
f 166/253/259 174/252/204 167/254/252 159/255/251
f 168/256/260 176/257/63 169/258/261
f 169/258/261 176/257/63 170/259/262
f 170/259/262 176/257/63 171/260/263
f 171/260/263 176/257/63 172/261/264
f 172/261/264 176/257/63 173/262/265
f 173/262/265 176/257/63 174/263/266
f 174/263/266 176/257/63 167/264/267
f 161/231/244 175/230/88 160/232/245
f 151/213/233 152/217/230 141/207/229 144/210/268
f 167/264/267 176/257/63 168/256/260
